<svg width="244" height="24" viewBox="0 0 244 24" fill="none" xmlns="http://www.w3.org/2000/svg">
<path d="M0 23.0943L10.0226 0H10.2642L20.2868 23.0943H15.2151L8.81509 6.85283L11.9849 4.67925L4.31698 23.0943H0ZM6.85283 15.0642H13.5245L15.0642 18.7472H5.49434L6.85283 15.0642Z" fill="black"/>
<path d="M43.42 24L26.5748 8.78491L27.8729 9.50943L27.9634 23.0943H23.5257V0H23.7068L40.1899 15.1547L39.2238 14.7321L39.1333 0.875471H43.5408V24H43.42Z" fill="black"/>
<path d="M67.2854 20.8604C67.0237 21.1421 66.6112 21.434 66.0476 21.7358C65.4841 22.0176 64.83 22.2792 64.0854 22.5208C63.3608 22.7623 62.6162 22.9535 61.8514 23.0943C61.0866 23.2553 60.3621 23.3358 59.6778 23.3358C57.8665 23.3358 56.2363 23.0742 54.7873 22.5509C53.3382 22.0075 52.1005 21.2629 51.0741 20.317C50.0476 19.3509 49.2627 18.2138 48.7193 16.9057C48.1759 15.5975 47.9042 14.1686 47.9042 12.6189C47.9042 10.5862 48.2061 8.82516 48.8099 7.33585C49.4338 5.82642 50.269 4.57862 51.3156 3.59245C52.3822 2.58616 53.5998 1.84151 54.9684 1.35849C56.3571 0.875472 57.8061 0.633963 59.3156 0.633963C60.7445 0.633963 62.0527 0.794969 63.2401 1.11698C64.4275 1.41887 65.4338 1.80126 66.259 2.26415L64.8401 6.33962C64.4778 6.13837 63.9948 5.93711 63.391 5.73585C62.7873 5.53459 62.1734 5.37359 61.5495 5.25283C60.9256 5.11195 60.3722 5.04151 59.8892 5.04151C58.6816 5.04151 57.6149 5.19245 56.6892 5.49434C55.7634 5.79623 54.9785 6.24906 54.3344 6.85283C53.7105 7.4566 53.2376 8.21132 52.9156 9.11698C52.5936 10.0025 52.4325 11.039 52.4325 12.2264C52.4325 13.273 52.6137 14.2189 52.9759 15.0642C53.3382 15.8893 53.8414 16.5937 54.4854 17.1774C55.1495 17.761 55.9244 18.2038 56.8099 18.5057C57.7156 18.8075 58.7118 18.9585 59.7986 18.9585C60.4225 18.9585 60.9961 18.9182 61.5193 18.8377C62.0426 18.7371 62.4854 18.5862 62.8476 18.3849V15.6981H59.0137V11.4717H67.2854V20.8604Z" fill="black"/>
<path d="M72.258 0.875471H76.6354V18.8679H87.0807V23.0943H72.258V0.875471Z" fill="black"/>
<path d="M89.62 12.0151C89.62 10.4855 89.9119 9.03648 90.4955 7.66792C91.0792 6.29937 91.8842 5.09182 92.9106 4.04528C93.9571 2.97862 95.1647 2.1434 96.5332 1.53962C97.9018 0.93585 99.371 0.633963 100.941 0.633963C102.49 0.633963 103.95 0.93585 105.318 1.53962C106.687 2.1434 107.894 2.97862 108.941 4.04528C110.007 5.09182 110.833 6.29937 111.416 7.66792C112.02 9.03648 112.322 10.4855 112.322 12.0151C112.322 13.5849 112.02 15.0541 111.416 16.4226C110.833 17.7912 110.007 18.9987 108.941 20.0453C107.894 21.0717 106.687 21.8767 105.318 22.4604C103.95 23.044 102.49 23.3358 100.941 23.3358C99.371 23.3358 97.9018 23.044 96.5332 22.4604C95.1647 21.8767 93.9571 21.0717 92.9106 20.0453C91.8842 18.9987 91.0792 17.7912 90.4955 16.4226C89.9119 15.0541 89.62 13.5849 89.62 12.0151ZM94.1483 12.0151C94.1483 13.0013 94.3194 13.927 94.6616 14.7925C95.0238 15.6377 95.5169 16.3925 96.1408 17.0566C96.7848 17.7006 97.5194 18.2038 98.3446 18.566C99.1899 18.9283 100.106 19.1094 101.092 19.1094C102.038 19.1094 102.913 18.9283 103.718 18.566C104.543 18.2038 105.258 17.7006 105.862 17.0566C106.465 16.3925 106.938 15.6377 107.28 14.7925C107.623 13.927 107.794 13.0013 107.794 12.0151C107.794 11.0088 107.612 10.073 107.25 9.20755C106.908 8.34214 106.425 7.58742 105.801 6.9434C105.197 6.27925 104.483 5.76604 103.658 5.40377C102.833 5.04151 101.937 4.86038 100.971 4.86038C100.005 4.86038 99.1093 5.04151 98.2842 5.40377C97.459 5.76604 96.7345 6.27925 96.1106 6.9434C95.4867 7.58742 95.0037 8.34214 94.6616 9.20755C94.3194 10.073 94.1483 11.0088 94.1483 12.0151Z" fill="black"/>
<path d="M115.448 14.3396H121.124V18.0226H115.448V14.3396Z" fill="black"/>
<path d="M125.914 0.875471H130.291V23.0943H125.914V0.875471Z" fill="black"/>
<path d="M134.516 0.875471H149.49V5.10189H144.086V23.0943H139.709V5.10189H134.516V0.875471Z" fill="black"/>
<path d="M149.41 23.0943L159.433 0H159.675L169.697 23.0943H164.625L158.225 6.85283L161.395 4.67925L153.727 23.0943H149.41ZM156.263 15.0642H162.935L164.475 18.7472H154.905L156.263 15.0642Z" fill="black"/>
<path d="M172.936 0.875471H177.313V18.8679H187.759V23.0943H172.936V0.875471Z" fill="black"/>
<path d="M192.276 0.875471H196.653V23.0943H192.276V0.875471Z" fill="black"/>
<path d="M199.882 23.0943L209.905 0H210.146L220.169 23.0943H215.097L208.697 6.85283L211.867 4.67925L204.199 23.0943H199.882ZM206.735 15.0642H213.407L214.946 18.7472H205.376L206.735 15.0642Z" fill="black"/>
<path d="M243.302 24L226.457 8.78491L227.755 9.50943L227.846 23.0943H223.408V0H223.589L240.072 15.1547L239.106 14.7321L239.015 0.875471H243.423V24H243.302Z" fill="black"/>
</svg>
