<svg xmlns="http://www.w3.org/2000/svg" fill="none" viewBox="0 0 89 16" height="16" width="89">
<g clip-path="url(#clip0_1_237)" id="LOGO_Hunza_G_Landscape-WHITE 2">
<g id="Layer 1">
<g id="Group">
<path fill="black" d="M28.354 14.2671V6.35978C28.354 6.0477 28.3995 5.62619 28.4451 5.33437H24.507V6.0477H26.0309C26.1013 6.18144 26.1676 6.44894 26.1676 6.82587V15.7586H29.8986V15.0453H28.4658C28.4202 14.9115 28.3498 14.6441 28.3498 14.2671H28.354Z" id="Vector"></path>
<path fill="black" d="M21.4276 12.2212V6.34679C21.4276 6.01865 21.4738 5.57847 21.5452 5.33437H17.6453V6.03866H19.0768C19.144 6.17071 19.2153 6.43482 19.2153 6.80697V12.7214C19.2153 14.4381 20.1599 15.7586 22.1455 15.7586C23.4594 15.7586 24.4082 15.1864 24.7524 14.9223V14.306C24.3578 14.4581 23.7827 14.6582 23.1362 14.6582C21.9356 14.6582 21.4276 13.9539 21.4276 12.2172V12.2212Z" id="Vector_2"></path>
<path fill="black" d="M35.0614 14.2671V5.33437H31.1242V6.0477H32.6838C32.7516 6.18144 32.8237 6.44894 32.8237 6.82587V14.2671C32.8237 14.6481 32.7559 14.9115 32.6838 15.0453H31.1242V15.7586H36.7608V15.0453H35.2012C35.1292 14.9115 35.0614 14.6441 35.0614 14.2671Z" id="Vector_3"></path>
<path fill="black" d="M42.2376 14.2504V8.23944C42.2376 6.39274 41.3878 5.09063 39.3752 5.09063C38.0579 5.09063 37.2082 5.6516 36.7609 5.99146V6.62204C37.1187 6.46644 37.7449 6.23714 38.3466 6.23714C39.3305 6.23714 40.0908 6.84315 40.0908 8.32952V14.2504C40.0908 14.6353 40.0217 14.9015 39.9567 15.0366H38.4604V15.7573H43.868V15.0366H42.3474C42.3026 14.9015 42.2376 14.6313 42.2376 14.2504Z" id="Vector_4"></path>
<path fill="black" d="M15.5403 14.2502V1.50735C15.5403 1.12642 15.6123 0.856079 15.68 0.720908H17.8902V0H10.8618V0.720908H13.0719C13.1397 0.856079 13.2116 1.12642 13.2116 1.50735V7.40569H9.55774V8.1266H13.2116V14.2502C13.2116 14.6353 13.1439 14.9015 13.0719 15.0367H10.8618V15.7576H17.8902V15.0367H15.68C15.6123 14.9015 15.5403 14.6312 15.5403 14.2502Z" id="Vector_5"></path>
<path fill="black" d="M46.1236 6.99244C46.148 6.71737 46.3271 6.13285 46.4817 6.00677H50.1927L50.7298 5.33437H45.3383V8.00104H46.0097L46.1236 6.99244Z" id="Vector_6"></path>
<path fill="black" d="M4.56377 1.50735C4.56377 1.12642 4.63367 0.856079 4.69945 0.720908H6.84566V0H0V0.720908H2.14621C2.21199 0.856079 2.28189 1.12642 2.28189 1.50735V14.2502C2.28189 14.6353 2.2161 14.9015 2.14621 15.0367H0V15.7576H6.84566V15.0367H4.69945C4.63367 14.9015 4.56377 14.6312 4.56377 14.2502V8.1266H8.08734V7.40569H4.56377V1.50735Z" id="Vector_7"></path>
<path fill="black" d="M53.8712 14.0185C53.8253 14.3952 53.6669 14.9201 53.5043 15.0523H49.5187L49.0142 15.7576H54.6508V12.8485H53.9629L53.8712 14.0145V14.0185Z" id="Vector_8"></path>
<path fill="black" d="M54.6505 5.33437H52.5469L44.8477 15.7586H47.2752L54.6505 5.88963V5.33437Z" id="Vector_9"></path>
<path fill="black" d="M57.1016 7.75468H57.9047L58.0249 6.78262C58.0722 6.41269 58.2139 6.15688 58.2612 6.02701H61.0227V5.33437H57.1059V7.75862L57.1016 7.75468Z" id="Vector_10"></path>
<path fill="black" d="M56.1211 13.0227V13.2933C56.1211 14.7817 56.9701 15.9994 58.8102 15.9994C59.5922 15.9994 60.4203 15.7944 61.0183 15.3885V14.8473C60.6252 14.9826 60.1443 15.0728 59.7553 15.0728C58.8144 15.0728 58.3543 14.5316 58.3543 13.4942C58.3543 11.3744 58.4923 10.8578 61.0225 10.8578V10.1813H59.9184C57.1833 10.1813 56.1253 11.1038 56.1253 13.0227H56.1211Z" id="Vector_11"></path>
<path fill="black" d="M66.4823 13.6384C66.4823 14.83 66.0461 15.1452 65.5385 15.1452C64.8463 15.1452 64.7079 14.5597 64.7079 14.0438V7.36124C64.7079 6.41537 64.108 5.49407 62.493 5.33437V13.8186C62.493 15.0101 63.139 16.001 64.8673 16.001C66.5956 16.001 67.1493 15.0797 67.1493 13.5688V12.8031H66.4823V13.6343V13.6384Z" id="Vector_12"></path>
<path fill="black" d="M85.714 5.33333H86.51V0.13706H85.8051L85.1913 2.16652C85.1913 2.16652 83.8727 0 80.8734 0V0.728584C83.9182 0.774271 85.3951 3.48662 85.714 5.33333Z" id="Vector_13"></path>
<path fill="black" d="M72.0508 8.04623C72.0508 12.5625 74.4868 16 79.1579 16V15.2817C75.6382 14.9901 74.4214 12.7189 74.4214 8.09127C74.4214 3.46362 75.7714 1.0123 79.1579 0.720699V0C74.6199 0 72.0508 3.3925 72.0508 8.04623Z" id="Vector_14"></path>
<path fill="black" d="M81.7176 9.44859H84.7717C84.7934 9.67497 84.8391 9.94663 84.8391 10.285V11.8887C84.8391 14.193 82.8334 15.2534 80.8734 15.2773V15.9993C83.7689 15.9993 85.0459 14.3503 85.2046 13.9666L86.3662 15.8873H87.1189V10.2397C87.1189 9.85608 87.1862 9.58442 87.256 9.44859H88.7157V8.72656H81.7176V9.44859Z" id="Vector_15"></path>
</g>
</g>
</g>
<defs>
<clipPath id="clip0_1_237">
<rect fill="white" height="16" width="88.4706"></rect>
</clipPath>
</defs>
</svg>
