<svg xmlns="http://www.w3.org/2000/svg" fill="none" viewBox="0 0 180 180" height="180" width="180">
<g clip-path="url(#clip0_3897_444)">
<path fill="#CB4538" d="M38.8014 125.831C38.2526 126.017 38.2526 127.281 38.2526 127.281H84.8252V122.92H83.708C80.7972 122.734 71.3494 123.831 71.3494 113.286V13.6425C71.3494 3.09701 80.9834 2.37176 83.8942 1.27408C84.443 1.09767 84.443 0 84.443 0H38.2526C38.2526 0 38.2526 1.08787 38.8014 1.27408C41.7122 2.36196 51.3462 3.09701 51.3462 13.6425V113.462C51.3462 124.008 41.7122 124.733 38.8014 125.831Z"></path>
<path fill="#CB4538" d="M143.345 92.3711C143.345 92.3711 142.257 92.3711 142.257 92.92C140.209 96.8696 126.782 116.569 112.091 121.695V127.281H132.074L143.531 92.3711H143.345Z"></path>
<path fill="#CB4538" d="M75.2892 50.0029C75.2892 50.0029 75.2892 51.0908 75.8381 51.277C78.7488 52.3649 88.3829 53.0999 88.3829 63.6454L88.5691 145.824C88.5691 164.122 80.7678 172.315 71.9178 174.481C68.6836 175.275 65.2533 174.971 62.1857 173.668C54.8255 170.531 42.8491 161.191 39.6246 133.406L38.1937 132.936L34.7145 158.604C34.7145 158.604 33.2052 166.297 38.1937 169.522C42.3982 172.237 53.0907 177.892 64.2831 179.538C64.3027 179.538 64.3223 179.538 64.3517 179.538C65.3415 179.685 66.3216 179.793 67.3115 179.871C67.3703 179.871 67.4193 179.881 67.4683 179.881C68.5072 179.96 69.5362 180.009 70.5653 179.999C89.1081 179.999 108.562 167.817 108.386 138.179V62.9104C108.386 63.0966 108.2 63.273 108.2 63.4592V62.5478L108.386 62.7242C108.935 53.0901 118.206 52.3649 120.931 51.2672C121.48 51.081 121.48 49.9931 121.48 49.9931H75.299L75.2892 50.0029Z"></path>
</g>
<defs>
<clipPath id="clip0_3897_444">
<rect fill="white" height="180" width="180"></rect>
</clipPath>
</defs>
</svg>
