<svg xmlns="http://www.w3.org/2000/svg" fill="none" viewBox="0 0 151 25" height="25" width="151">
<path fill="#482922" d="M11.8898 19.6236L7.81812 11.6591C6.4897 9.04085 5.16355 6.28384 3.98299 3.55592H3.92385C4.0717 6.39573 4.16042 9.2333 4.16042 12.0731V19.6258H0V0H6.16442L10.2361 7.96445C11.5645 10.5827 12.8907 13.3397 14.0713 16.0676H14.1304C13.9825 13.2278 13.8938 10.3903 13.8938 7.55045V0H18.0542V19.6236H11.8898Z"></path>
<path fill="#482922" d="M19.0823 14.2216V5.62158H23.2131V13.8344C23.2131 15.9559 24.2163 16.9204 25.8381 16.9204C27.5487 16.9204 28.7884 15.6516 28.7884 13.1161V5.62158H32.9192V19.6237H29.0545V17.8603H28.9954C28.0218 19.1001 26.5182 19.9549 24.6007 19.9549C21.2387 19.9549 19.0845 18.0259 19.0845 14.2216"></path>
<path fill="#482922" d="M43.303 19.6236V17.7774H43.2439C42.3294 19.2118 40.678 19.9816 38.9379 19.9816C35.1619 19.9816 32.712 17.0881 32.712 12.6236C32.712 8.15914 35.13 5.26562 38.8787 5.26562C40.5893 5.26562 42.2112 5.98173 43.1256 7.30429H43.1847V0H47.3156V19.6236H43.303ZM37.0203 12.6236C37.0203 15.2978 38.2896 17.0344 40.2663 17.0344C42.1247 17.0344 43.394 15.4075 43.394 12.6236C43.394 9.83976 42.1247 8.21285 40.2663 8.21285C38.2896 8.21285 37.0203 9.94941 37.0203 12.6236Z"></path>
<path fill="#482922" d="M57.2299 15.3785H61.4494C60.8603 17.9408 58.2626 20.0645 54.2796 20.0645C49.5596 20.0645 46.8163 16.9785 46.8163 12.5118C46.8163 8.37853 49.5596 5.18066 54.25 5.18066C57.7008 5.18066 60.2393 7.00002 61.1833 9.8376C61.5086 10.8021 61.6542 11.8763 61.6542 13.4204H50.8858C51.0041 16.3139 52.5076 17.3343 54.2773 17.3343C55.9288 17.3343 57.0206 16.5086 57.2276 15.3785M50.9745 10.9968H57.5233C57.2572 8.87533 55.9015 7.91082 54.2478 7.91082C52.5941 7.91082 51.2975 8.87533 50.9722 10.9968"></path>
<path fill="#482922" d="M65.4028 8.06509C63.4944 8.06509 62.0499 6.69553 62.0499 4.92317C62.0499 3.1508 63.4944 1.78125 65.4028 1.78125C67.3113 1.78125 68.7557 3.1508 68.7557 4.92317C68.7557 6.69553 67.309 8.06509 65.4028 8.06509ZM65.4028 2.50631C63.9675 2.50631 62.8665 3.59166 62.8665 4.92317C62.8665 6.25468 63.9675 7.34003 65.4028 7.34003C66.8382 7.34003 67.9391 6.25692 67.9391 4.92317C67.9391 3.58942 66.8382 2.50631 65.4028 2.50631ZM64.6363 6.64854H63.8697V3.16647H65.512C65.8555 3.16647 66.1216 3.20227 66.3082 3.29403C66.6812 3.45963 66.9974 3.79978 66.9974 4.28539C66.9974 4.88289 66.6243 5.21409 66.1216 5.35955L67.1248 6.6463H66.1512L65.2163 5.40654H64.6363V6.6463V6.64854ZM65.4119 4.73743C65.7258 4.73743 65.8851 4.71953 65.9829 4.67253C66.1398 4.59868 66.2194 4.47113 66.2194 4.28762C66.2194 4.10412 66.1398 3.96538 65.9829 3.90272C65.8851 3.85572 65.7372 3.84677 65.4119 3.84677H64.634V4.73743H65.4119Z"></path>
<path fill="#482922" d="M79.2519 0C84.3563 0 86.9517 2.53547 86.9517 6.33978C86.9517 10.1441 84.3563 12.6796 79.2519 12.6796H75.6533V19.6258H71.3177V0H79.2542H79.2519ZM75.6533 9.3161H78.6627C81.406 9.3161 82.5274 8.186 82.5274 6.33978C82.5274 4.49357 81.406 3.36346 78.6627 3.36346H75.6533V9.3161Z"></path>
<path fill="#482922" d="M95.7477 5.56326V8.89764C95.2746 8.81484 94.8629 8.75889 94.4489 8.75889C91.9126 8.75889 90.5546 10.2471 90.5546 13.0041V19.6191H86.4238V5.61921H90.2293V7.60417H90.2885C91.2916 6.08916 92.62 5.3999 94.3898 5.3999C94.8037 5.3999 95.3337 5.45585 95.7477 5.5655"></path>
<path fill="#482922" d="M109.992 12.6268C109.992 17.1741 107.012 20.0676 102.321 20.0676C97.6309 20.0676 94.651 17.1741 94.651 12.6268C94.651 8.07955 97.6309 5.18604 102.321 5.18604C107.012 5.18604 109.992 8.07955 109.992 12.6268ZM98.9888 12.6268C98.9888 15.3548 100.288 17.0913 102.321 17.0913C104.355 17.0913 105.654 15.3548 105.654 12.6268C105.654 9.89891 104.355 8.16235 102.321 8.16235C100.288 8.16235 98.9888 9.89891 98.9888 12.6268Z"></path>
<path fill="#482922" d="M113.975 19.9279C113.975 23.4547 111.851 24.8623 108.871 24.8623C108.104 24.8623 107.427 24.7795 106.835 24.6408V21.8569C107.072 21.9129 107.336 21.9397 107.631 21.9397C109.078 21.9397 109.845 21.3601 109.845 19.3483V5.62368H113.975V19.9279ZM109.847 0H113.978V3.30752H109.847V0Z"></path>
<path fill="#482922" d="M124.186 15.3785H128.406C127.817 17.9408 125.219 20.0645 121.238 20.0645C116.518 20.0645 113.775 16.9785 113.775 12.5118C113.775 8.37853 116.518 5.18066 121.209 5.18066C124.659 5.18066 127.198 7.00002 128.142 9.8376C128.467 10.8021 128.615 11.8763 128.615 13.4204H117.847C117.965 16.3139 119.468 17.3343 121.238 17.3343C122.89 17.3343 123.981 16.5086 124.188 15.3785M117.931 10.9968H124.48C124.213 8.87533 122.858 7.91082 121.204 7.91082C119.55 7.91082 118.254 8.87533 117.928 10.9968"></path>
<path fill="#482922" d="M142.652 10.8312H138.346C138.198 9.17744 137.135 8.15698 135.543 8.15698C133.537 8.15698 132.327 9.86669 132.327 12.6215C132.327 15.3762 133.537 17.0859 135.543 17.0859C137.135 17.0859 138.198 15.9558 138.316 14.1365H142.654C142.329 17.6924 139.615 20.0623 135.573 20.0623C131.001 20.0623 128.021 17.1419 128.021 12.6215C128.021 8.10104 131.001 5.18066 135.573 5.18066C139.615 5.18066 142.329 7.55053 142.654 10.8312"></path>
<path fill="#482922" d="M151 16.5873V19.5368C150.441 19.7024 149.526 19.812 148.816 19.812C145.366 19.812 143.86 18.5163 143.86 15.2647V8.4841H141.44V5.61744H143.86V1.98096H147.991V5.61967H150.827V8.48634H147.991V14.5777C147.991 16.1218 148.523 16.7283 149.938 16.7283C150.322 16.7283 150.734 16.6723 151 16.5895"></path>
</svg>
