<svg viewBox="0 0 500 82" version="1.1" xmlns="http://www.w3.org/2000/svg" id="Layer_1">
  
  <defs>
    <style>
      .st0 {
        fill: #1d1d1b;
      }
    </style>
  </defs>
  <path d="M7.4,3.1h14.2c.9,0,1.4.6,1.6,1.4l7.3,52.9h.1l7.4-53c.1-.7.7-1.4,1.6-1.4h14.2c.9,0,1.6.7,1.6,1.6v72.9c0,.9-.7,1.6-1.6,1.6h-8.1c-.9,0-1.6-.7-1.6-1.6V21.6h-.1l-8.4,56.1c-.1.7-.7,1.3-1.6,1.3h-7.3c-.7,0-1.4-.6-1.6-1.3l-8.4-56.1h-.1v55.9c0,.9-.7,1.6-1.6,1.6h-7.3c-.9,0-1.6-.7-1.6-1.6V4.7c-.1-.9.6-1.6,1.4-1.6h0ZM76.1,3.1h10.9c1.6,0,2.9,1.1,3.1,2.7l11.3,69.6c.3,1.9-1.1,3.6-3.1,3.6h-5.6c-1.6,0-2.9-1.1-3.1-2.7l-1.7-12.4h0c0,.1-10.9.1-10.9.1-1.6,0-2.9,1.1-3.1,2.7l-1.4,9.4c-.3,1.6-1.6,2.7-3.1,2.7h-4.6c-2,0-3.4-1.7-3.1-3.6L72.8,5.7c.3-1.4,1.7-2.6,3.3-2.6h0ZM82.9,53.9c1.9,0,3.4-1.7,3.1-3.6l-4.9-33.9h-.1l-4.9,33.9c-.3,1.9,1.1,3.6,3.1,3.6h3.6ZM110.9,3.1h5.6c1.7,0,3.1,1.4,3.1,3.1v69.6c0,1.7-1.4,3.1-3.1,3.1h-5.6c-1.7,0-3.1-1.4-3.1-3.1V6.3c0-1.7,1.3-3.1,3.1-3.1ZM126.4,61v-1.1c0-1.7,1.4-3.1,3.1-3.1h5c1.7,0,3.1,1.4,3.1,3.1v2c0,5.4,2.4,7.4,6.1,7.4s6.1-2,6.1-7.6-2.4-10.3-10.1-17.1c-10-8.7-13.3-15-13.3-23.6s6.1-18.9,17.7-18.9,17.3,7,17.3,19.1h0c0,1.7-1.4,3.1-3.1,3.1h-5c-1.7,0-3.1-1.4-3.1-3.1v-.7c0-5.4-2.1-7.4-6-7.4s-6,2-6,7.3,2.6,9.6,10.3,16.4c10,8.7,13.1,14.9,13.1,24.3s-6.3,19.3-18,19.3-17.3-7.3-17.3-19.4h0ZM233.8,3.1h9.4c1.4,0,2.7,1,3,2.4l11,43h.1V6.3c0-1.7,1.4-3.1,3.1-3.1h4.3c1.7,0,3.1,1.4,3.1,3.1v69.6c0,1.7-1.4,3.1-3.1,3.1h-6.7c-1.4,0-2.7-1-3-2.3l-13.7-53h-.1v52.3c0,1.7-1.4,3.1-3.1,3.1h-4.3c-1.7,0-3.1-1.4-3.1-3.1V6.4c0-1.9,1.4-3.3,3.1-3.3h0ZM293.7,6.3c0-1.7,1.4-3.1,3.1-3.1h14.9c12.3,0,17.7,5.7,17.7,17.4v3c0,7.9-2.4,12.7-7.7,14.9h0c6.4,2.3,8.9,8,8.9,16v6.4c0,11.7-6.1,18-18.2,18h-15.6c-1.7,0-3.1-1.4-3.1-3.1V6.3h0ZM310.3,34c4.4,0,7.1-2,7.1-8v-4.3c0-5.4-1.9-7.9-6-7.9h-2.6c-1.7,0-3.1,1.4-3.1,3.1v13.7c0,1.7,1.4,3.1,3.1,3.1h1.4ZM312.4,68.1c4,0,6.1-1.9,6.1-7.4v-6.6c0-7-2.3-9.3-7.7-9.3h-2.1c-1.7,0-3.1,1.4-3.1,3.1v17c0,1.7,1.4,3.1,3.1,3.1h3.7ZM340.6,3.1h26.3c1.7,0,3.1,1.4,3.1,3.1v4.6c0,1.7-1.4,3.1-3.1,3.1h-14.3c-1.7,0-3.1,1.4-3.1,3.1v13.7c0,1.7,1.4,3.1,3.1,3.1h10.1c1.7,0,3.1,1.4,3.1,3.1v4.6c0,1.7-1.4,3.1-3.1,3.1h-10.1c-1.7,0-3.1,1.4-3.1,3.1v17c0,1.7,1.4,3.1,3.1,3.1h14.3c1.7,0,3.1,1.4,3.1,3.1v4.6c0,1.7-1.4,3.1-3.1,3.1h-26.3c-1.7,0-3.1-1.4-3.1-3.1V6.3c0-1.7,1.4-3.1,3.1-3.1h0ZM388.7,3.1h10.9c1.6,0,2.9,1.1,3.1,2.7l11.3,69.6c.3,1.9-1.1,3.6-3.1,3.6h-5.6c-1.6,0-2.9-1.1-3.1-2.7l-1.7-12.4h0c0,.1-10.9.1-10.9.1-1.6,0-2.9,1.1-3.1,2.7l-1.4,9.4c-.3,1.6-1.6,2.7-3.1,2.7h-4.6c-2,0-3.4-1.7-3.1-3.6l11.3-69.6c.4-1.4,1.7-2.6,3.3-2.6h0ZM395.4,53.9c1.9,0,3.4-1.7,3.1-3.6l-4.9-33.9h-.3l-4.7,34c-.3,1.9,1.1,3.6,3.1,3.6h3.6ZM417.9,61v-1.1c0-1.7,1.4-3.1,3.1-3.1h5c1.7,0,3.1,1.4,3.1,3.1v2c0,5.4,2.4,7.4,6.1,7.4s6.1-2,6.1-7.6-2.4-10.3-10.1-17.1c-10-8.7-13.3-15-13.3-23.6s6.1-18.9,17.7-18.9,17.3,7,17.3,19.1h0c0,1.7-1.4,3.1-3.1,3.1h-5c-1.7,0-3.1-1.4-3.1-3.1v-.7c0-5.4-2.1-7.4-6-7.4s-6,2-6,7.3,2.6,9.6,10.3,16.4c10,8.7,13.1,14.9,13.1,24.3s-6.3,19.3-18,19.3-17.3-7.3-17.3-19.4h0ZM466.5,14h-6.1c-1.7,0-3.1-1.4-3.1-3.1v-4.6c0-1.7,1.4-3.1,3.1-3.1h30.6c1.7,0,3.1,1.4,3.1,3.1v4.6c0,1.7-1.4,3.1-3.1,3.1h-6.1c-1.7,0-3.1,1.4-3.1,3.1v58.7c0,1.7-1.4,3.1-3.1,3.1h-5.7c-1.7,0-3.1-1.4-3.1-3.1V17.1c0-1.7-1.4-3.1-3.1-3.1h0ZM197.6.1c-.7,0-1.4-.1-2.3-.1-15.7,0-28.6,13.1-28.6,29.4v23.1c0,16.3,12.9,29.4,28.6,29.4s1.4,0,2.3-.1c14.7-1.1,26.3-13.6,26.3-28.4v-25c0-14.6-11.6-27.1-26.3-28.3ZM213.8,53.6c0,9.6-7.4,17.6-17,18.3h-1.4c-6.1,0-11.6-3.1-14.9-8-.6-.7.3-1.7,1.1-1.3,2.3,1,4.7,1.6,7.4,1.6,7.6,0,14-4.7,16.4-11.4.1-.3.4-.6.9-.6h7.1s.4,0,.4.3v1.1h-.1ZM212.9,43.7h-35.2c-.4,0-.9-.4-.9-.9v-13.4c0-10.7,8.3-19.3,18.4-19.3h1.6c9.6.9,16.9,9.1,16.9,18.7v13.9c0,.7-.4,1-.9,1h0Z" class="st0"></path>
</svg>