<svg fill="none" viewBox="0 0 145 32" height="32" width="145" xmlns="http://www.w3.org/2000/svg">
  <path fill="black" d="M130.853 23.5747V27.6949C130.87 27.8549 130.852 28.0166 130.801 28.169C130.749 28.3213 130.665 28.4606 130.554 28.5771C130.443 28.6937 130.308 28.7847 130.158 28.8439C130.009 28.9031 129.848 28.9291 129.687 28.92C129.151 28.92 128.531 28.6067 128.531 27.6949V4.3051C128.531 3.38392 129.158 3.07999 129.687 3.07999C129.848 3.07144 130.008 3.09778 130.158 3.15717C130.307 3.21656 130.442 3.3076 130.553 3.42403C130.663 3.54046 130.748 3.67951 130.8 3.83161C130.851 3.98371 130.87 4.14524 130.853 4.3051V8.42534H133.928V3.84451C133.928 1.30657 132.307 0 129.691 0C127.155 0 125.457 1.30657 125.457 3.84451V28.1555C125.457 30.6934 127.155 32 129.691 32C132.307 32 133.928 30.6934 133.928 28.1555V23.5747H130.853ZM0 31.7525V0.231858H3.25621L7.32099 23.2582L11.3795 0.231858H14.6388V31.7525H11.5644V16.9071L8.94126 31.7713H5.69758L3.07444 16.9071V31.7525H0ZM40.8107 17.8596C40.8334 17.2378 40.7056 16.6198 40.4382 16.0579C40.1709 15.4961 39.7719 15.007 39.2751 14.6323C40.2748 13.8616 40.8107 12.7868 40.8107 11.3236V3.22726C40.8107 2.22775 40.7355 1.53843 40.4284 1.15304C40.0429 0.526386 39.1967 0.231858 37.8115 0.231858H32.28V31.7713H35.3545V16.0862H35.508C36.5078 16.0862 37.752 16.7786 37.752 18.0852V31.7713H40.8264V17.8596H40.8107ZM37.7363 11.0949C37.7363 12.4014 36.4827 13.0939 35.4924 13.0939H35.3388V3.22726H36.7365C37.4292 3.22726 37.7363 3.54058 37.7363 4.22677V11.0886V11.0949ZM52.9079 13.4072H48.4357V3.22726H52.9079V0.231858H45.3581V31.7713H48.4357V16.2522H52.9079V13.4072ZM145 28.8479H140.528V16.2522H145V13.4072H140.528V3.22726H145V0.231858H137.45V31.7713H145V28.8479ZM86.5951 0.231858H95.762V3.22726H92.7534V31.7713H89.679V3.22726H86.5951V0.231858ZM78.0362 12.3263L83.436 18.3452V28.1555C83.436 30.6934 81.7374 32 79.202 32C76.5851 32 74.9649 30.6934 74.9649 28.1555V23.5747H78.0362V27.6949C78.0191 27.8549 78.037 28.0166 78.0887 28.169C78.1404 28.3213 78.2247 28.4606 78.3356 28.5771C78.4465 28.6937 78.5814 28.7847 78.731 28.8439C78.8807 28.9031 79.0414 28.9291 79.202 28.92C79.7316 28.92 80.3584 28.6349 80.3584 27.6949V19.2852L74.9617 13.2662V3.84451C74.9617 1.30657 76.6604 0 79.1989 0C81.8126 0 83.4329 1.30657 83.4329 3.84451V8.42534H80.3584V4.3051C80.3666 4.14758 80.3427 3.99004 80.288 3.84207C80.2334 3.6941 80.1492 3.55881 80.0405 3.44442C79.9319 3.33002 79.8011 3.23893 79.6562 3.17668C79.5112 3.11443 79.3551 3.08233 79.1973 3.08233C79.0395 3.08233 78.8834 3.11443 78.7384 3.17668C78.5935 3.23893 78.4627 3.33002 78.3541 3.44442C78.2455 3.55881 78.1613 3.6941 78.1066 3.84207C78.0519 3.99004 78.028 4.14758 78.0362 4.3051V12.3263ZM121.505 31.7713V0.231858H118.427V18.2136L114.613 0.272591L111.325 0.231858V31.7713H114.403V14.0715L118.164 31.765L121.505 31.7713ZM61.8398 0.231858L65.9923 31.7431H62.9555L61.915 23.8441H58.7309L57.6904 31.7431H54.6567L58.8061 0.231858H61.8398ZM61.5326 20.9302L60.3229 11.756L59.1163 20.9302H61.5326ZM29.146 31.7431L24.9966 0.231858H21.9629L17.8104 31.7431H20.8472L21.8877 23.8441H25.0719L26.1123 31.7431H29.146ZM23.4798 11.756L24.6864 20.9302H22.2701L23.4798 11.756ZM104.004 0.231858L108.154 31.7431H105.117L104.076 23.8441H100.892L99.8518 31.7431H96.8181L100.968 0.231858H104.004ZM103.691 20.9302L102.481 11.756L101.275 20.9302H103.691Z" clip-rule="evenodd" fill-rule="evenodd"></path>
</svg>