<svg xmlns="http://www.w3.org/2000/svg" fill="none" viewBox="0 0 226 46" height="46" width="226">
<g clip-path="url(#clip0_577_126438)">
<path fill="#141718" d="M98.1848 20.3482L86.2941 45.8571H65.6575L86.9667 0.142853H105.309L127.811 25.6634L139.708 0.142853H160.345L139.035 45.8571H120.676L98.1848 20.3482ZM83.5275 0.142853H21.6238L0.313965 45.8571H62.2177L83.5275 0.142853ZM47.3929 33.3898H26.7624L34.5114 16.766H31.0685L33.0056 12.6102H57.0796L47.3929 33.3898ZM204.38 45.8571L210.191 33.3892H168.922L170.859 29.2334H212.127L217.939 16.766H176.671L178.608 12.6102H219.876L225.686 0.142853H163.783L142.473 45.8571H204.38Z"></path>
</g>
<defs>
<clipPath id="clip0_577_126438">
<rect transform="translate(0.313965 0.5)" fill="white" height="45" width="225.372"></rect>
</clipPath>
</defs>
</svg>
