<svg xmlns="http://www.w3.org/2000/svg" fill="none" viewBox="0 0 122 16" height="16" width="122">
<path fill="black" d="M121.373 11.5063C121.373 13.9356 119.31 15.96 116.688 15.96C114.066 15.96 112.176 14.3598 111.752 11.8919L113.352 11.5063C113.776 13.3572 114.933 14.4562 116.688 14.4562C118.249 14.4562 119.657 13.3572 119.657 11.6027C119.657 7.9973 112.832 9.48187 112.832 4.89318C112.832 2.61812 114.548 0.960022 116.919 0.960022C118.886 0.960022 120.216 2.07827 120.794 3.52429L119.329 4.27622C118.886 3.19653 118.114 2.48316 116.861 2.48316C115.531 2.48316 114.509 3.37005 114.509 4.7775C114.509 8.01658 121.373 6.68624 121.373 11.5063Z"></path>
<path fill="black" d="M108.218 1.19135V15.7286H106.482V1.19135H108.218Z"></path>
<path fill="black" d="M94.5469 15.7286V1.19135H96.2821V14.1862H102.278V15.7286H94.5469Z"></path>
<path fill="black" d="M82.6113 15.7286V1.19135H84.3465V14.1862H90.3427V15.7286H82.6113Z"></path>
<path fill="black" d="M70.2988 15.7286V1.19135H78.0109V2.73376H72.034V7.30317H77.9916V8.84559H72.034V14.1862H78.0302V15.7286H70.2988Z"></path>
<path fill="black" d="M53.0399 9.52039V15.7286H51.3047V1.19135H54.6016C57.3008 1.19135 59.4217 2.71448 59.4217 5.35587C59.4217 7.59237 57.8985 9.03839 55.7777 9.42399L60.3471 15.7286H58.342L53.8882 9.52039H53.0399ZM53.0399 2.6952V8.07438H54.4859C56.1826 8.07438 57.725 7.30317 57.725 5.35587C57.725 3.40857 56.1826 2.6952 54.4859 2.6952H53.0399Z"></path>
<path fill="black" d="M38.9922 15.7286V1.19135H46.7043V2.73376H40.7274V7.30317H46.685V8.84559H40.7274V14.1862H46.7236V15.7286H38.9922Z"></path>
<path fill="black" d="M27.0566 15.7286V1.19135H28.7919V14.1862H34.788V15.7286H27.0566Z"></path>
<path fill="black" d="M18.7923 15.7286H17.0571V9.42399L12.2178 1.19135H14.1844L17.9633 7.70805L21.7422 1.19135H23.6317L18.7923 9.42399V15.7286Z"></path>
<path fill="black" d="M9.75413 2.73376H6.16802V15.7286H4.4328V2.73376H0.84668V1.19135H9.75413V2.73376Z"></path>
</svg>
